<?xml version="1.0" encoding="utf-8"?>
<!-- Generator: Adobe Illustrator 17.1.0, SVG Export Plug-In . SVG Version: 6.00 Build 0)  -->
<!DOCTYPE svg PUBLIC "-//W3C//DTD SVG 1.1//EN" "http://www.w3.org/Graphics/SVG/1.1/DTD/svg11.dtd">
<svg version="1.1" id="Layer_1" xmlns="http://www.w3.org/2000/svg" xmlns:xlink="http://www.w3.org/1999/xlink" x="0px" y="0px"
	 viewBox="0 0 120 148.3" enable-background="new 0 0 120 148.3" xml:space="preserve">
<ellipse opacity="0.8" cx="60" cy="138.6" rx="22.3" ry="3.4"/>
<ellipse fill="#FFFFFF" cx="63.3" cy="65.4" rx="41.5" ry="48.6"/>
<path fill="#AD2070" d="M54.8,39.5c-8.1,3.4-10.8,13.4-5.5,20.4c3.6,4.8,10.2,6.5,15.7,4.2c8.1-3.4,10.8-13.4,5.5-20.4
	C66.8,38.9,60.3,37.2,54.8,39.5"/>
<path fill="#AD2070" d="M116.1,61.2c0-36.9-35.6-65.4-74.3-53.2C25.3,13.2,12.3,26.1,6.9,42.5C-0.4,65,6.2,86.6,20.2,100.7h0
	L58.4,138c0.9,0.9,2.4,0.9,3.4,0l38.1-37.2h0C109.9,90.6,116.1,76.6,116.1,61.2 M86.5,54.4v8.8v19.4h0c-1.2,13.5-12.5,24-26.3,24
	c-10.8,0-20.1-6.5-24.2-15.8c-0.3-0.6,0-1.3,0.5-1.6l9.1-5.6c0.7-0.4,1.6-0.1,1.9,0.7c1.7,5.3,6.7,9.2,12.6,9.2
	c6.5,0,12-4.7,13.1-10.9v-7.8c0,0-0.1,0-0.1,0c-13.2,7.6-30.2,2.6-37-11.3c-5.8-11.8-1.8-26.3,9.1-33.6c11.4-7.6,26.2-5.2,34.7,4.7
	c0.2,0.3,0.6,0.5,1,0.5h4.3c0.7,0,1.3,0.6,1.3,1.3V54.4z"/>
</svg>
